<?xml version="1.0" encoding="UTF-8"?>
<svg version="1.1" viewBox="0 0 757.33 306.67" xmlns="http://www.w3.org/2000/svg">
  <g transform="translate(15.271 -45.23)">
    <path d="m-13.937 115v-70h53.333v90.687l162-0.68733 0.35123-45.139 0.35124-45.139 67.649 0.67292c79.376 0.78957 88.707 1.9285 118.19 14.425 31.535 13.368 62.229 42.22 74.691 70.209l2.5358 5.6953 49.569-0.72393 0.70214-90h226.63v49.314l-174 0.68598v40l174 0.68598v49.314h-320.7l-2.9331-12.333c-13.367-56.207-48.809-78.559-125.03-78.852l-38.667-0.14847-0.35084 45.667-0.35083 45.667h-267.96z" fill="#0c61a1"/>
    <path d="m-13.937 281.67v-70h267.96l0.35083 45.667 0.35084 45.667 38.667-0.0722c76.607-0.14303 112.37-22.537 124.93-78.227l2.9395-13.035h146.13v140h-51.965l-0.70214-90-24.283-0.36322c-24.012-0.35916-24.303-0.32937-26.105 2.6667-1.002 1.6664-4.7747 8.0442-8.3836 14.173-20.684 35.124-60.754 61.563-106.56 70.312-10.059 1.921-22.945 2.3848-79.649 2.8667l-67.649 0.57491-0.3512-45.115-0.35121-45.115h-161.33l-0.35107 45-0.35107 45h-53.298z" fill="#627e3f"/>
  </g>
</svg>
